<?xml version="1.0" encoding="UTF-8"?>
<svg width="586px" height="205px" viewBox="0 0 586 205" version="1.1" xmlns="http://www.w3.org/2000/svg" xmlns:xlink="http://www.w3.org/1999/xlink">
    <!-- Generator: Sketch 48.2 (47327) - http://www.bohemiancoding.com/sketch -->
    <title>Group</title>
    <desc>Created with Sketch.</desc>
    <defs>
        <linearGradient x1="74.8315868%" y1="0%" x2="57.0920659%" y2="100%" id="linearGradient-1">
            <stop stop-color="#FBD249" offset="0%"></stop>
            <stop stop-color="#F4265F" offset="20.4284668%"></stop>
            <stop stop-color="#45F9E5" offset="100%"></stop>
        </linearGradient>
    </defs>
    <g id="Page-2" stroke="none" stroke-width="1" fill="none" fill-rule="evenodd">
        <g id="Group">
            <path d="M237.348,62.248 C260.532,62.248 276.66,78.52 276.66,101.848 C276.66,104.584 276.372,108.904 275.94,110.92 L219.924,110.92 C222.516,119.272 228.708,124.6 237.204,124.6 C244.404,124.6 250.884,121.144 252.9,116.104 L271.332,116.104 L271.332,124.456 C266.58,135.112 252.324,141.88 236.772,141.88 C212.436,141.88 195.732,125.32 195.732,101.56 C195.732,78.376 212.724,62.248 237.348,62.248 Z M236.052,79.528 C226.404,79.528 220.068,86.872 218.772,97.672 L253.62,97.672 C253.476,87.448 246.276,79.528 236.052,79.528 Z M291.06,65.128 L313.956,65.128 L313.956,145.912 C313.956,161.896 303.732,172.552 288.612,172.552 C283.14,172.552 276.516,171.544 272.196,170.104 L272.196,151.384 C274.5,152.104 277.956,152.392 280.836,152.392 C287.028,152.392 291.06,148.36 291.06,142.312 L291.06,65.128 Z M289.332,43.096 C289.332,35.608 294.804,30.28 302.436,30.28 C310.068,30.28 315.54,35.608 315.54,43.096 C315.54,50.44 310.068,55.768 302.436,55.768 C294.804,55.768 289.332,50.44 289.332,43.096 Z M411.444,102.136 C411.444,125.608 394.596,141.88 370.26,141.88 C345.78,141.88 329.076,125.608 329.076,102.136 C329.076,78.52 345.78,62.248 370.26,62.248 C394.596,62.248 411.444,78.52 411.444,102.136 Z M388.548,102.136 C388.548,90.472 380.916,82.408 370.26,82.408 C359.46,82.408 351.972,90.472 351.972,102.136 C351.972,113.656 359.46,121.72 370.26,121.72 C380.916,121.72 388.548,113.656 388.548,102.136 Z M425.988,154.264 C427.716,154.84 431.46,155.272 433.476,155.272 C441.54,155.272 446.58,149.08 450.612,139.864 L418.932,75.064 L418.932,65.128 L438.948,65.128 L459.684,111.208 L475.956,65.128 L495.972,65.128 L495.972,75.064 L470.772,141.736 C464.148,159.592 454.5,172.408 439.668,172.408 C435.492,172.408 429.588,171.544 425.988,170.104 L425.988,154.264 Z M544.5,62.248 C568.548,62.248 585.828,78.952 585.828,102.136 L585.828,139 L564.804,139 L564.804,130.216 C558.756,137.704 549.972,141.88 539.748,141.88 C518.292,141.88 503.46,125.608 503.46,102.136 C503.46,78.952 520.452,62.248 544.5,62.248 Z M544.644,82.408 C533.988,82.408 526.356,90.616 526.356,102.136 C526.356,113.512 533.988,121.72 544.644,121.72 C555.3,121.72 562.932,113.512 562.932,102.136 C562.932,90.616 555.3,82.408 544.644,82.408 Z" id="ejoya" fill="#000000"></path>
            <path d="M22.5041501,90.0753492 C8.00053824,81.5881621 -0.0554660021,67.3907776 0.000287469803,50.4880138 C0.0552458742,33.8262903 7.93310009,19.7667932 22.0495143,10.9973839 C33.2781809,4.02190327 47.7807123,0.666014875 65.7971334,0.0153886035 L66.2232575,0 L110.221939,0 L110.221939,47.8697116 L67.0948648,47.8697116 C59.7615949,48.1590724 54.2162198,49.0465172 50.5425061,50.2129521 C54.2097189,51.1195525 59.6104227,51.7200275 66.6496558,51.7200275 C85.4264158,52.0281152 100.238666,55.2264973 111.720333,62.2833923 C126.085355,71.1124625 134,85.4435632 134,102.435403 C134,119.511237 125.996031,133.871365 111.474146,142.556062 C99.9167932,149.467844 85.0659816,152.428313 66.6702623,152.428304 C57.9274623,152.435931 51.8008127,153.419495 48.4283515,154.765138 C51.8646588,156.136157 58.1051006,157.130288 66.9999986,157.130288 L110.221939,157.130288 L110.221939,205 L66.9999986,205 C48.6482361,205 33.8273778,201.997651 22.2938175,194.988368 C7.886446,186.232585 5.30909398e-05,171.854103 0.000156406836,154.798 C0.000156406836,137.791096 7.80833898,123.432166 22.1201136,114.650919 C33.6085153,107.602003 48.3691274,104.574539 66.6496558,104.558602 C75.4034863,104.558602 81.6513685,103.621352 85.2414494,102.299913 C81.6698838,100.844297 75.3543027,99.7505834 66.4380425,99.5896098 C48.3958833,99.5675296 33.8549695,96.7175932 22.5041501,90.0753492 Z M46.6396719,153.853906 C46.6359681,153.85068 46.6332158,153.848384 46.6314704,153.84702 C46.6322668,153.847642 46.6330734,153.84827 46.6338901,153.848904 L46.6396719,153.853906 Z M46.2002283,48.5622563 C46.1939166,48.5570978 46.188502,48.5528363 46.1840293,48.5494694 C46.1857816,48.5507885 46.1876153,48.5521541 46.1895309,48.5535659 L46.2002283,48.5622563 Z" id="E-Copy" fill="url(#linearGradient-1)" fill-rule="nonzero"></path>
        </g>
    </g>
</svg>