<?xml version="1.0" encoding="UTF-8"?>
<svg width="22px" height="16px" viewBox="0 0 22 16" version="1.1" xmlns="http://www.w3.org/2000/svg" xmlns:xlink="http://www.w3.org/1999/xlink">
    <!-- Generator: Sketch 48.2 (47327) - http://www.bohemiancoding.com/sketch -->
    <title>ic_past_orders</title>
    <desc>Created with Sketch.</desc>
    <defs></defs>
    <g id="User-Activity-(1)" stroke="none" stroke-width="1" fill="none" fill-rule="evenodd" transform="translate(-69.000000, -288.000000)" stroke-linecap="round" stroke-linejoin="round">
        <g id="Sidebar" stroke="#000000">
            <g id="New-Release" transform="translate(39.000000, 271.000000)">
                <g id="ic_past_orders" transform="translate(29.000000, 13.000000)">
                    <g id="Group">
                        <g transform="translate(2.000000, 5.000000)" stroke-width="2">
                            <path d="M6,7 L6,0 L6,0 L14,0 L14,1 M14,7 L14,14 L6,14 L6,13" id="Rectangle-2"></path>
                            <polyline id="Path-2" points="17 0 20 4 17 8"></polyline>
                            <path d="M20,4 L10,4" id="Line"></path>
                            <polyline id="Path-2-Copy" transform="translate(1.500000, 10.000000) scale(-1, 1) translate(-1.500000, -10.000000) " points="0 6 3 10 0 14"></polyline>
                            <path d="M10,10 L0,10" id="Line-Copy" transform="translate(5.000000, 10.500000) scale(-1, 1) translate(-5.000000, -10.500000) "></path>
                        </g>
                    </g>
                </g>
            </g>
        </g>
    </g>
</svg>