<?xml version="1.0" encoding="UTF-8"?>
<svg width="26px" height="20px" viewBox="0 0 26 20" version="1.1" xmlns="http://www.w3.org/2000/svg" xmlns:xlink="http://www.w3.org/1999/xlink">
    <!-- Generator: Sketch 48.2 (47327) - http://www.bohemiancoding.com/sketch -->
    <title>Icon</title>
    <desc>Created with Sketch.</desc>
    <defs>
        <path d="M20.4,4 L23.45,4 C23.8365993,4 24.15,4.31340068 24.15,4.7 C24.15,5.08659932 23.8365993,5.4 23.45,5.4 L20.4,5.4 L20.4,8.45 C20.4,8.83659932 20.0865993,9.15 19.7,9.15 C19.3134007,9.15 19,8.83659932 19,8.45 L19,5.4 L15.95,5.4 C15.5634007,5.4 15.25,5.08659932 15.25,4.7 C15.25,4.31340068 15.5634007,4 15.95,4 L19,4 L19,0.95 C19,0.563400675 19.3134007,0.25 19.7,0.25 C20.0865993,0.25 20.4,0.563400675 20.4,0.95 L20.4,4 Z" id="path-1"></path>
    </defs>
    <g id="Wallet" stroke="none" stroke-width="1" fill="none" fill-rule="evenodd" transform="translate(-80.000000, -286.000000)">
        <g id="Sidebar" fill-rule="nonzero">
            <g id="New-Release" transform="translate(39.000000, 271.000000)">
                <g id="Icon" transform="translate(41.000000, 16.000000)">
                    <path d="M17,3.18582341 C17,2.28202594 16.6126582,1.42126645 15.9455696,0.818734806 C15.256962,0.194684173 14.3531646,-0.0850626627 13.4493671,0.022532274 L7.57468354,0.775696831 C5.96075949,0.94784873 4.73417722,2.30354493 4.73417722,3.93898797 L4.73417722,12.0731652 C4.28227848,11.8364563 3.76582278,11.6858234 3.2278481,11.6858234 C1.44177215,11.6858234 0,13.1491146 0,14.9351905 C0,16.7212665 1.44177215,18.2060766 3.2278481,18.2060766 C4.99240506,18.2060766 6.43417722,16.7643044 6.4556962,14.9782285 L6.4556962,3.93898797 C6.4556962,3.18582341 7.01518987,2.56177278 7.76835443,2.47569683 L13.643038,1.72253227 C14.0518987,1.6794943 14.4607595,1.80860822 14.7835443,2.08835506 C15.1063291,2.36810189 15.278481,2.75544367 15.278481,3.18582341 L15.278481,8.60860822 C14.8265823,8.37189936 14.2886076,8.22126645 13.7506329,8.22126645 C11.943038,8.22126645 10.5012658,9.68455759 10.5012658,11.4706335 C10.5012658,13.2567095 11.964557,14.7200006 13.7506329,14.7200006 C15.5367089,14.7200006 17,13.2782285 17,11.4921525 C17,11.4921525 17,11.4921525 17,11.4921525 L17,3.18582341 Z M3.2278481,16.4845576 C2.38860759,16.4845576 1.72151899,15.79595 1.72151899,14.9567095 C1.72151899,14.117469 2.38860759,13.4288614 3.2278481,13.4288614 C4.06708861,13.4288614 4.73417722,14.117469 4.73417722,14.9567095 C4.73417722,15.79595 4.06708861,16.4845576 3.2278481,16.4845576 Z M13.7506329,13.0200006 C12.9113924,13.0200006 12.2227848,12.331393 12.2227848,11.4921525 C12.2227848,10.652912 12.9113924,9.96430443 13.7506329,9.96430443 C14.5898734,9.96430443 15.278481,10.652912 15.278481,11.4921525 C15.278481,12.331393 14.5898734,13.0200006 13.7506329,13.0200006 Z" id="Shape" fill="#000000"></path>
                    <g id="Combined-Shape">
                        <use fill="#000000" fill-rule="evenodd" xlink:href="#path-1"></use>
                        <path stroke="#54DFC5" stroke-width="1.2" d="M21,3.4 L23.45,3.4 C24.1679702,3.4 24.75,3.98202983 24.75,4.7 C24.75,5.41797017 24.1679702,6 23.45,6 L21,6 L21,8.45 C21,9.16797017 20.4179702,9.75 19.7,9.75 C18.9820298,9.75 18.4,9.16797017 18.4,8.45 L18.4,6 L15.95,6 C15.2320298,6 14.65,5.41797017 14.65,4.7 C14.65,3.98202983 15.2320298,3.4 15.95,3.4 L18.4,3.4 L18.4,0.95 C18.4,0.232029825 18.9820298,-0.35 19.7,-0.35 C20.4179702,-0.35 21,0.232029825 21,0.95 L21,3.4 Z"></path>
                    </g>
                </g>
            </g>
        </g>
    </g>
</svg>