<?xml version="1.0"?>
<svg xmlns="http://www.w3.org/2000/svg" xmlns:xlink="http://www.w3.org/1999/xlink" version="1.1" viewBox="0 0 210 210" width="48px" height="48px"><g transform="translate(11.55,11.55) scale(0.89,0.89)"><g fill="none" fill-rule="nonzero" stroke="none" stroke-width="1" stroke-linecap="butt" stroke-linejoin="miter" stroke-miterlimit="10" stroke-dasharray="" stroke-dashoffset="0" font-family="none" font-weight="none" font-size="none" text-anchor="none" style="mix-blend-mode: normal"><path d="M0,210v-210h210v210z" fill="none" stroke="none"/><g id="Layer_1" stroke="none"><path d="M174.33062,158.23062c0.04375,-0.06125 0.105,-0.11813 0.14875,-0.17937l-0.14438,0.035c-0.04375,0.06125 -0.09625,0.11812 -0.14438,0.17937z" fill="#80d8ff"/><path d="M63.99312,182.19687c17.6575,9.42813 38.60063,12.88875 59.6925,8.27313c21.09187,-4.61125 38.68375,-16.49375 50.79375,-32.4275z" fill="#00e5ff"/><path d="M64.03688,182.1925l110.29812,-24.11063c5.59562,-7.32375 10.09313,-15.46125 13.16,-24.2025l-145.41625,31.78875c6.40938,6.6325 13.81625,12.21063 21.91437,16.53313z" fill="#80d8ff"/><path d="M192.22437,111.51875l-163.76937,35.80062c3.745,6.78125 8.37812,12.915 13.65,18.375l145.36375,-31.73625c2.52,-7.17063 4.17813,-14.69125 4.75563,-22.43938z" fill="#82b1ff"/><path d="M192.22437,111.51875c0.6125,-8.24688 0.105,-16.7125 -1.75,-25.20875l-170.94437,37.37125c1.85938,8.49187 4.92625,16.3975 8.925,23.63375z" fill="#8c9eff"/><path d="M190.47438,86.31875c-1.6275,-7.455 -4.2525,-14.41562 -7.55125,-20.92125l-165.23062,35.57312c-0.34125,7.46375 0.17063,15.07188 1.84188,22.715z" fill="#b388ff"/><path d="M182.91438,65.3975c0.05687,0.11375 0.14875,0.21437 0.21437,0.31937c-4.8125,-9.54625 -11.235,-17.99437 -18.89125,-25.03375l-139.90375,30.58563c-3.89812,9.30562 -6.1075,19.34188 -6.58438,29.68438z" fill="#ea80fc"/><path d="M164.2375,40.6875c0.0525,0.04812 0.12688,0.07875 0.18375,0.13125c-7.62125,-7.035 -16.44563,-12.67 -26.03125,-16.6425l-97.45312,21.30188c-6.99563,7.54687 -12.565,16.29687 -16.54188,25.7775z" fill="#ff80ab"/><path d="M40.93688,45.47813l97.4575,-21.30188c-15.92938,-6.5975 -33.95,-8.61 -52.07563,-4.65062c-18.12562,3.95937 -33.66125,13.30875 -45.38187,25.9525z" fill="#ff8a80"/><path d="M105,26.24563c-43.4875,0 -78.75,35.2625 -78.75,78.75438c0,43.49188 35.25812,78.75437 78.75,78.75437c43.49187,0 78.75,-35.2625 78.75,-78.75437c0,-43.49187 -35.25813,-78.75437 -78.75,-78.75437zM144.375,123.865c0,11.27438 -9.14375,20.4225 -20.41813,20.4225h-0.4025c-7.10062,0 -13.02437,-4.12562 -14.10937,-11.13875c-0.19688,-1.29063 -0.21,-2.58125 -0.03938,-3.87187c0.7175,-5.53 4.655,-10.02313 9.86562,-11.57625l1.155,-0.28l12.20188,-3.67063c1.76313,-0.45063 2.99687,-2.03438 2.99687,-3.85438v-29.78062c0,-2.47188 -2.13938,-4.34875 -4.57625,-3.92l-34.68937,7.56c-2.64687,0.46813 -4.48437,2.765 -4.48437,5.45563v47.86687c0,11.27875 -8.3475,20.4225 -19.62188,20.4225h-0.4025c-7.10062,0 -13.72875,-4.83 -14.81375,-11.84312c-0.19687,-1.29063 -0.21,-2.58125 -0.03937,-3.87188c0.7175,-5.53 4.655,-10.02312 9.86563,-11.57625l1.155,-0.28l12.11875,-3.58312c1.75437,-0.44188 2.98812,-2.03 2.98812,-3.84563v-58.33187c0,-2.6425 1.89437,-4.9 4.49312,-5.35938l52.08437,-10.6225c2.44125,-0.42875 4.6725,1.44375 4.6725,3.92z" fill="#ffffff"/></g><path d="M105,210c-57.9899,0 -105,-47.0101 -105,-105v0c0,-57.9899 47.0101,-105 105,-105v0c57.9899,0 105,47.0101 105,105v0c0,57.9899 -47.0101,105 -105,105z" fill="none" stroke="none"/><path d="M105,205.8c-55.6703,0 -100.8,-45.1297 -100.8,-100.8v0c0,-55.6703 45.1297,-100.8 100.8,-100.8h0c55.6703,0 100.8,45.1297 100.8,100.8v0c0,55.6703 -45.1297,100.8 -100.8,100.8z" fill="none" stroke="none"/></g></g></svg>
