<svg xmlns="http://www.w3.org/2000/svg" xmlns:xlink="http://www.w3.org/1999/xlink" width="585.828" height="205" viewBox="0 0 585.828 205">
  <defs>
    <linearGradient id="linear-gradient" x1="0.748" x2="0.571" y2="1" gradientUnits="objectBoundingBox">
      <stop offset="0" stop-color="#fbd249"/>
      <stop offset="0.204" stop-color="#f4265f"/>
      <stop offset="1" stop-color="#45f9e5"/>
    </linearGradient>
  </defs>
  <g id="Group_1" data-name="Group 1" transform="translate(567 -404)">
    <g id="logo-light" transform="translate(-567 404)">
      <g id="Group">
        <path id="ejoya" d="M237.348,62.248c23.184,0,39.312,16.272,39.312,39.6a56.528,56.528,0,0,1-.72,9.072H219.924c2.592,8.352,8.784,13.68,17.28,13.68,7.2,0,13.68-3.456,15.7-8.5h18.432v8.352c-4.752,10.656-19.008,17.424-34.56,17.424-24.336,0-41.04-16.56-41.04-40.32C195.732,78.376,212.724,62.248,237.348,62.248Zm-1.3,17.28c-9.648,0-15.984,7.344-17.28,18.144H253.62C253.476,87.448,246.276,79.528,236.052,79.528Zm55.008-14.4h22.9v80.784c0,15.984-10.224,26.64-25.344,26.64A57.8,57.8,0,0,1,272.2,170.1v-18.72a32.347,32.347,0,0,0,8.64,1.008c6.192,0,10.224-4.032,10.224-10.08ZM289.332,43.1c0-7.488,5.472-12.816,13.1-12.816s13.1,5.328,13.1,12.816c0,7.344-5.472,12.672-13.1,12.672S289.332,50.44,289.332,43.1Zm122.112,59.04c0,23.472-16.848,39.744-41.184,39.744-24.48,0-41.184-16.272-41.184-39.744,0-23.616,16.7-39.888,41.184-39.888C394.6,62.248,411.444,78.52,411.444,102.136Zm-22.9,0c0-11.664-7.632-19.728-18.288-19.728-10.8,0-18.288,8.064-18.288,19.728,0,11.52,7.488,19.584,18.288,19.584C380.916,121.72,388.548,113.656,388.548,102.136Zm37.44,52.128a31.333,31.333,0,0,0,7.488,1.008c8.064,0,13.1-6.192,17.136-15.408l-31.68-64.8V65.128h20.016l20.736,46.08,16.272-46.08h20.016v9.936l-25.2,66.672c-6.624,17.856-16.272,30.672-31.1,30.672a42.6,42.6,0,0,1-13.68-2.3ZM544.5,62.248c24.048,0,41.328,16.7,41.328,39.888V139H564.8v-8.784a31.372,31.372,0,0,1-25.056,11.664c-21.456,0-36.288-16.272-36.288-39.744C503.46,78.952,520.452,62.248,544.5,62.248Zm.144,20.16c-10.656,0-18.288,8.208-18.288,19.728,0,11.376,7.632,19.584,18.288,19.584s18.288-8.208,18.288-19.584C562.932,90.616,555.3,82.408,544.644,82.408Z" fill="#fff" fill-rule="evenodd"/>
        <path id="E-Copy" d="M22.5,90.075C8,81.588-.055,67.391,0,50.488A45.312,45.312,0,0,1,22.05,11C33.278,4.022,47.781.666,65.8.015L66.223,0h44V47.87H67.095c-7.333.289-12.879,1.177-16.552,2.343A70.283,70.283,0,0,0,66.65,51.72c18.777.308,33.589,3.506,45.071,10.563C126.085,71.112,134,85.444,134,102.435c0,17.076-8,31.436-22.526,40.121-11.557,6.912-26.408,9.872-44.8,9.872-8.743.008-14.869.991-18.242,2.337,3.436,1.371,9.677,2.365,18.572,2.365h43.222V205H67c-18.352,0-33.173-3-44.706-10.012C7.886,186.233,0,171.854,0,154.8c0-17.007,7.808-31.366,22.12-40.147,11.488-7.049,26.249-10.076,44.53-10.092,8.754,0,15-.937,18.592-2.259-3.572-1.456-9.887-2.549-18.8-2.71C48.4,99.568,33.855,96.718,22.5,90.075ZM46.64,153.854l-.008-.007,0,0ZM46.2,48.562l-.016-.013.006,0Z" fill="url(#linear-gradient)"/>
      </g>
    </g>
    <path id="Path_1" data-name="Path 1" d="M2.337-30.463V-9.717C2.337-3.608,7.093.82,13.694.82,20.541.82,25.5-3.936,25.5-10.5s-4.51-11.357-10.66-11.357a8.613,8.613,0,0,0-5.986,2.3V-30.463ZM18.983-10.5c0,3.239-2.173,5.576-5.207,5.576C10.783-4.92,8.61-7.257,8.61-10.5c0-3.28,2.173-5.617,5.166-5.617C16.81-16.113,18.983-13.776,18.983-10.5Zm21.4-11.357c-7.011,0-11.849,4.592-11.849,11.193C28.536-3.895,33.292.82,40.221.82c4.428,0,8.487-1.927,9.84-4.961V-6.519H44.813C44.239-5.084,42.394-4.1,40.344-4.1a5.058,5.058,0,0,1-4.92-3.895H51.373a16.1,16.1,0,0,0,.2-2.583C51.578-17.22,46.986-21.853,40.385-21.853Zm-.369,4.92a4.983,4.983,0,0,1,5,5.166H35.1C35.465-14.842,37.269-16.933,40.016-16.933Zm13.079.82h2.911v9.1C56.006-2.3,58.794.82,62.935.82A15.623,15.623,0,0,0,67.363.164V-5.207a8.423,8.423,0,0,1-2.214.287,2.589,2.589,0,0,1-2.624-2.87v-8.323H67.2v-4.92H62.525v-4.51H56.006v4.51H53.1Zm28.085-5.74c-6.847,0-11.685,4.756-11.685,11.357C69.495-3.813,73.718.82,79.827.82A8.932,8.932,0,0,0,86.961-2.5V0h5.986V-10.5C92.947-17.1,88.027-21.853,81.18-21.853Zm.041,5.74c3.034,0,5.207,2.337,5.207,5.617,0,3.239-2.173,5.576-5.207,5.576S76.014-7.257,76.014-10.5C76.014-13.776,78.187-16.113,81.221-16.113Z" transform="translate(-76 586)" fill="#fff"/>
  </g>
</svg>
