<?xml version="1.0" encoding="UTF-8"?>
<svg width="1915px" height="1350px" viewBox="0 0 1915 1350" version="1.1" xmlns="http://www.w3.org/2000/svg" xmlns:xlink="http://www.w3.org/1999/xlink">
    <!-- Generator: Sketch 48.2 (47327) - http://www.bohemiancoding.com/sketch -->
    <title>Path 3 Copy</title>
    <desc>Created with Sketch.</desc>
    <defs>
        <linearGradient x1="74.8315868%" y1="0%" x2="57.0920659%" y2="100%" id="linearGradient-1">
            <stop stop-color="#FBD249" offset="0%"></stop>
            <stop stop-color="#F4265F" offset="20.4284668%"></stop>
            <stop stop-color="#45F9E5" offset="100%"></stop>
        </linearGradient>
    </defs>
    <g id="5" stroke="none" stroke-width="1" fill="none" fill-rule="evenodd">
        <path d="M1240.67127,-739.790258 L1240.67127,-178.344106 L1225.3591,-178.344106 L1225.3591,-739.790258 L1240.67127,-739.790258 Z M1210.04694,-739.790258 L1210.04694,-178.344106 L1194.73477,-178.344106 L1194.73477,-739.790258 L1210.04694,-739.790258 Z M1179.4226,-739.790258 L1179.4226,-178.344106 L1164.11043,-178.344106 L1164.11043,-739.790258 L1179.4226,-739.790258 Z M1148.79827,-739.790258 L1148.79827,-178.344106 L1133.4861,-178.344106 L1133.4861,-739.790258 L1148.79827,-739.790258 Z M1118.17393,-739.790258 L1118.17393,-178.344106 L1102.86176,-178.344106 L1102.86176,-739.790258 L1118.17393,-739.790258 Z M1087.54959,-739.790258 L1087.54959,-178.344106 L1072.23743,-178.344106 L1072.23743,-739.790258 L1087.54959,-739.790258 Z M1056.92526,-739.790258 L1056.92526,-178.344106 L1041.61309,-178.344106 L1041.61309,-739.790258 L1056.92526,-739.790258 Z M1026.30092,-739.790258 L1026.30092,-178.344106 L1010.98876,-178.344106 L1010.98876,-739.790258 L1026.30092,-739.790258 Z M995.676588,-739.790258 L995.676588,-178.344106 L980.364421,-178.344106 L980.364421,-739.790258 L995.676588,-739.790258 Z M965.052253,-739.790258 L965.052253,-178.344106 L949.740085,-178.344106 L949.740085,-739.790258 L965.052253,-739.790258 Z M934.427917,-739.790258 L934.427917,-178.344106 L919.115749,-178.344106 L919.115749,-739.790258 L934.427917,-739.790258 Z M903.803582,-739.790258 L903.803582,-178.344106 L888.491414,-178.344106 L888.491414,-739.790258 L903.803582,-739.790258 Z M873.179246,-739.790258 L873.179246,-178.344106 L857.867078,-178.344106 L857.867078,-739.790258 L873.179246,-739.790258 Z M842.554911,-739.790258 L842.554911,-178.344106 L827.242743,-178.344106 L827.242743,-739.790258 L842.554911,-739.790258 Z M811.930575,-739.790258 L811.930575,-178.344106 L796.618407,-178.344106 L796.618407,-739.790258 L811.930575,-739.790258 Z M781.306239,-739.790258 L781.306239,-178.344106 L765.994072,-178.344106 L765.994072,-739.790258 L781.306239,-739.790258 Z M750.681904,-739.790258 L750.681904,-178.344106 L735.369736,-178.344106 L735.369736,-739.790258 L750.681904,-739.790258 Z M709.008053,-739.339109 L731.151565,-178.329799 C726.860641,-178.160433 722.612481,-177.973346 718.407202,-177.768635 L691.108573,-738.550737 C697.038426,-738.8394 703.00488,-739.102159 709.008053,-739.339109 Z M673.15104,-737.590775 L705.828392,-177.096376 C701.628843,-176.851538 697.474832,-176.588524 693.366493,-176.307455 L655.045161,-736.444275 C661.041756,-736.854527 667.077004,-737.236653 673.15104,-737.590775 Z M636.75947,-735.096508 L681.01778,-175.397497 C676.925807,-175.073923 672.882442,-174.73181 668.887843,-174.371315 L618.424925,-733.545059 C624.495457,-734.092897 630.606919,-734.609994 636.75947,-735.096508 Z M599.938422,-731.768652 L656.926196,-173.222167 C652.951366,-172.816621 649.028775,-172.392236 645.158604,-171.949221 L581.307305,-729.752764 C587.473942,-730.458654 593.684254,-731.130547 599.938422,-731.768652 Z M562.451341,-727.470814 L633.558607,-170.54574 C629.712525,-170.054679 625.923065,-169.544592 622.190436,-169.01576 L543.432173,-724.91046 C549.724743,-725.801981 556.064396,-726.655339 562.451341,-727.470814 Z M524.205854,-722.044556 L611.055421,-167.356415 C607.385522,-166.781805 603.776512,-166.188524 600.228627,-165.57694 L504.853377,-718.862891 C511.253608,-719.966161 517.704356,-721.026593 524.205854,-722.044556 Z M485.24068,-715.317698 L589.666507,-163.668327 C586.189855,-163.010206 582.779345,-162.334131 579.435227,-161.640604 L465.424454,-711.389024 C471.974734,-712.747468 478.580059,-714.056859 485.24068,-715.317698 Z M445.337427,-707.029858 L569.538003,-159.493559 C566.301489,-158.759403 563.136587,-158.008868 560.043543,-157.242631 L425.037876,-702.215338 C431.743989,-703.876638 438.510424,-705.481252 445.337427,-707.029858 Z M404.538594,-696.909095 L550.996598,-154.901867 C548.046786,-154.104787 545.174354,-153.294044 542.379496,-152.470555 L383.697216,-691.025766 C390.577352,-693.052959 397.524413,-695.013764 404.538594,-696.909095 Z M362.525028,-684.50915 L534.248783,-149.96941 C531.637857,-149.130636 529.110333,-148.282551 526.666262,-147.426391 L341.050109,-677.302249 C348.132624,-679.783262 355.290913,-682.185151 362.525028,-684.50915 Z M319.196724,-669.302633 L519.658568,-144.863093 C517.455366,-144.020941 515.340613,-143.176189 513.314039,-142.330453 L297.083549,-660.467652 C304.367248,-663.507306 311.738396,-666.45176 319.196724,-669.302633 Z M274.624022,-650.664707 L507.654262,-139.862702 C505.925002,-139.073805 504.287164,-138.29197 502.739852,-137.519208 L251.885732,-639.807962 C259.361753,-643.541652 266.941482,-647.159896 274.624022,-650.664707 Z M228.801394,-627.728879 L498.594435,-135.353518 C497.39949,-134.698757 496.294508,-134.06394 495.277497,-133.451304 L205.571646,-614.379886 C213.188983,-618.968483 220.932897,-623.417401 228.801394,-627.728879 Z M182.031894,-599.483522 L492.777619,-131.873775 C492.14655,-131.454403 491.596858,-131.070252 491.124861,-130.723263 L158.570936,-583.083372 C166.233259,-588.716352 174.054806,-594.182422 182.031894,-599.483522 Z M135.508768,-565.228294 L490.281608,-130.075432 C490.215763,-130.021749 364.261323,-268.445541 112.418289,-545.346806 C119.915354,-552.164913 127.614087,-558.791892 135.508768,-565.228294 Z M491.763185,-131.657905 C491.382847,-131.220036 491.027608,-130.835256 490.704802,-130.505895 L472.125324,-148.715601 L491.763185,-131.657905 Z M67.892979,-499.836978 C74.9226423,-507.929955 82.2048795,-515.817776 89.7323573,-523.498109 L472.125324,-148.715601 L67.892979,-499.836978 Z M494.798995,-135.669566 C494.269887,-134.875763 493.731229,-134.121662 493.19015,-133.413377 L459.009481,-159.52497 L494.798995,-135.669566 Z M27.6218194,-447.065244 C33.794618,-456.326101 40.2676301,-465.388073 47.0337258,-474.245046 L459.009481,-159.52497 L27.6218194,-447.065244 Z M497.913707,-141.089171 C497.45202,-140.148378 496.956055,-139.21653 496.430298,-138.302564 L454.84031,-162.227116 L497.913707,-141.089171 Z M-6.11153312,-388.435767 C-1.1481368,-398.549822 4.14427922,-408.493517 9.7612286,-418.257915 L454.84031,-162.227116 L-6.11153312,-388.435767 Z M500.071181,-146.27957 C499.804871,-145.493346 499.499322,-144.677547 499.155149,-143.841291 L461.423417,-159.370342 L500.071181,-146.27957 Z M-31.6978231,-326.400384 C-28.1392661,-336.906279 -24.252572,-347.283534 -20.0383564,-357.523031 L461.423417,-159.370342 L-31.6978231,-326.400384 Z M500.966737,-149.464167 C500.893162,-149.110767 500.793835,-148.695121 500.666343,-148.224147 L479.827991,-153.86505 L500.966737,-149.464167 Z M-48.6937412,-263.898168 C-46.5216667,-274.331286 -44.0494819,-284.676398 -41.2747755,-294.926586 L479.827991,-153.86505 L-48.6937412,-263.898168 Z M-54.2038194,-233.066855 L501.045962,-149.883557 C501.033204,-149.798391 501.013253,-149.635726 500.98976,-149.391561 L-57.8754286,-203.164063 C-56.9106832,-213.190798 -55.6880297,-223.159729 -54.2038194,-233.066855 Z M-59.9638781,-173.700244 L500.890789,-147.935462 C500.861172,-147.290759 500.843614,-146.57338 500.841005,-145.829062 C500.840472,-145.636201 500.840472,-145.636201 500.840478,-145.553945 L-60.6056453,-145.376212 C-60.6052791,-146.530954 -60.6052791,-146.530954 -60.6018696,-147.746753 C-60.5714766,-156.431783 -60.359723,-165.083386 -59.9638781,-173.700244 Z M-59.9323432,-116.886981 L500.886758,-143.414649 C500.908508,-142.954837 500.935013,-142.588568 500.962047,-142.313136 L-57.7992096,-87.471184 C-58.7564866,-97.2244713 -59.4661219,-107.030639 -59.9323432,-116.886981 Z M500.780226,-143.235579 C500.866101,-142.833803 500.925904,-142.507388 500.963562,-142.26227 L484.119143,-139.674457 L500.780226,-143.235579 Z M-48.2646068,-25.88332 C-50.4648172,-36.1772345 -52.3659435,-46.5538914 -53.9719125,-57.0073556 L484.119143,-139.674457 L-48.2646068,-25.88332 Z M499.454094,-147.84365 C499.785014,-146.89846 500.068474,-145.995624 500.305973,-145.14455 L458.120205,-133.372248 L499.454094,-147.84365 Z M-30.4533941,37.6821861 C-34.1347059,27.1674528 -37.4758894,16.5255887 -40.4784454,5.76599953 L458.120205,-133.372248 L-30.4533941,37.6821861 Z M496.465601,-154.771447 C497.083407,-153.564695 497.650791,-152.355367 498.164761,-151.154478 L444.728552,-128.284227 L496.465601,-154.771447 Z M-3.29380275,101.084607 C-8.55010778,90.817553 -13.4511601,80.3713945 -17.9939701,69.7571451 L444.728552,-128.284227 L-3.29380275,101.084607 Z M492.12741,-161.962918 C492.909847,-160.85075 493.664579,-159.695072 494.384224,-158.504903 L443.347628,-127.645193 L492.12741,-161.962918 Z M32.9342143,161.090314 C26.2657798,151.611691 19.9313651,141.91217 13.9383517,132.000768 L443.347628,-127.645193 L32.9342143,161.090314 Z M487.793603,-167.36034 C488.481876,-166.615637 489.181747,-165.80674 489.884199,-164.938203 L452.167507,-134.433815 L487.793603,-167.36034 Z M75.4770274,213.712911 C67.8110284,205.418395 60.4302275,196.887807 53.3436408,188.125703 L452.167507,-134.433815 L75.4770274,213.712911 Z M484.995501,-170.083082 C485.312047,-169.815795 485.679976,-169.485961 486.091606,-169.093888 L469.074731,-151.228216 L484.995501,-170.083082 Z M122.776039,258.891093 C114.575995,251.967097 106.602788,244.819434 98.8641018,237.448412 L469.074731,-151.228216 L122.776039,258.891093 Z M147.342647,278.461661 L484.638353,-170.373931 C484.697107,-170.329778 380.419978,-14.9195924 171.806966,295.856626 C163.475249,290.253294 155.318785,284.455653 147.342647,278.461661 Z M196.57229,311.633605 L486.545949,-169.133551 C487.229106,-168.721507 488.002617,-168.278705 488.869239,-167.807852 L220.831622,325.525319 C212.607348,321.056909 204.519985,316.42724 196.57229,311.633605 Z M244.073045,337.547588 L491.988498,-166.198092 C493.254262,-165.575153 494.615379,-164.937949 496.073088,-164.288973 L267.723268,348.622463 C259.728951,345.063368 251.845131,341.372574 244.073045,337.547588 Z M291.087645,358.525283 L501.012982,-162.198381 C502.820683,-161.469621 504.722161,-160.739529 506.71778,-160.010103 L313.973284,367.314598 C306.252654,364.492601 298.623985,361.563495 291.087645,358.525283 Z M336.519689,375.166426 L513.163928,-157.767523 C515.441915,-157.012471 517.808723,-156.265102 520.264286,-155.526919 L358.629874,382.149655 C351.180861,379.910359 343.810822,377.583117 336.519689,375.166426 Z M380.4868,388.407458 L528.020592,-153.30793 C530.694342,-152.579746 533.450492,-151.86512 536.288788,-151.165146 L401.854138,393.948701 C394.662386,392.175089 387.540024,390.328372 380.4868,388.407458 Z M422.958343,398.900099 L545.096234,-149.100008 C548.100873,-148.430336 551.181425,-147.777842 554.337581,-147.143316 L443.676538,403.289164 C436.708354,401.888254 429.802392,400.425496 422.958343,398.900099 Z M464.191613,407.2031 L564.04433,-145.292345 C567.322315,-144.699913 570.669981,-144.126718 574.08702,-143.57333 L484.33058,410.651861 C477.561177,409.55556 470.848291,408.406164 464.191613,407.2031 Z M504.276668,413.705344 L584.511808,-141.978112 C588.016238,-141.472107 591.584672,-140.98637 595.216827,-140.521316 L523.912404,416.37855 C517.315378,415.533879 510.770227,414.642949 504.276668,413.705344 Z M543.438567,418.726865 L606.275803,-139.191824 C609.969709,-138.775787 613.722563,-138.380393 617.534118,-138.005947 L562.642101,420.750393 C556.192993,420.116835 549.791898,419.442428 543.438567,418.726865 Z M581.711088,422.493104 L629.06928,-136.952142 C632.918474,-136.6263 636.822052,-136.321018 640.7798,-136.036524 L600.525242,423.964684 C594.209279,423.510673 587.937965,423.020222 581.711088,422.493104 Z M619.259587,425.196875 L652.748997,-135.249591 C656.730504,-135.011677 660.762418,-134.794 664.844558,-134.59673 L637.744196,426.194989 C631.54094,425.895216 625.379464,425.562567 619.259587,425.196875 Z M656.18599,426.984893 L677.180395,-134.068594 C681.272868,-133.915456 685.412211,-133.782062 689.59827,-133.668542 L674.378244,427.571275 C668.274969,427.405762 662.210936,427.210345 656.18599,426.984893 Z M692.524153,427.973375 L702.21809,-133.389082 C706.403914,-133.316799 710.633461,-133.263672 714.9066,-133.2298 L710.456227,428.198713 C704.441933,428.151039 698.464619,428.075959 692.524153,427.973375 Z M723.132278,428.248344 L732.960297,-133.111783 C738.948968,-133.006936 744.901996,-132.875859 750.819497,-132.718462 L735.891117,428.529188 C731.679962,428.417178 727.426978,428.323533 723.132278,428.248344 Z M748.5334,428.925079 L768.800126,-132.155166 C774.87782,-131.935634 780.917684,-131.687532 786.91985,-131.410744 L761.0564,429.439382 C756.926811,429.248947 752.752433,429.077474 748.5334,428.925079 Z M773.423376,430.073833 L805.148587,-130.475266 C811.302371,-130.126983 817.416172,-129.747602 823.490145,-129.336975 L785.620408,430.830557 C781.602426,430.558924 777.536697,430.306633 773.423376,430.073833 Z M797.647516,431.712559 L841.971985,-127.981217 C848.228664,-127.485725 854.442716,-126.955958 860.614321,-126.391719 L809.497355,432.722613 C805.598658,432.366175 801.648652,432.029425 797.647516,431.712559 Z M821.206312,433.868218 L879.513205,-124.542104 C885.88836,-123.876437 892.217834,-123.172628 898.501834,-122.430418 L832.646542,435.140082 C828.888408,434.696204 825.074929,434.272163 821.206312,433.868218 Z M843.846943,436.543199 L917.667985,-120.028661 C924.169264,-119.166362 930.621451,-118.26131 937.024778,-117.313157 L854.787017,438.077455 C851.199949,437.546311 847.55318,437.034776 843.846943,436.543199 Z M865.454293,439.743428 L956.605342,-114.254106 C963.265163,-113.158343 969.871635,-112.013907 976.425009,-110.820327 L875.822641,441.539107 C872.431249,440.921426 868.975049,440.32271 865.454293,439.743428 Z M885.888037,443.465861 L996.550964,-106.96624 C1003.38361,-105.592554 1010.15788,-104.162856 1016.87404,-102.676511 L895.556306,445.505749 C892.403735,444.808056 889.180895,444.127882 885.888037,443.465861 Z M904.765749,447.641742 L1037.33774,-97.9280967 C1044.35843,-96.2220883 1051.31465,-94.450913 1058.20663,-92.6137117 L913.591372,449.888093 C910.72533,449.124089 907.783384,448.375019 904.765749,447.641742 Z M921.933794,452.216001 L1079.36733,-86.7055732 C1086.59381,-84.5945236 1093.7481,-82.4066719 1100.83029,-80.1408667 L929.74914,454.604887 C927.225426,453.797475 924.62028,453.000796 921.933794,452.216001 Z M937.020351,457.038832 L1122.69474,-72.8166215 C1130.15173,-70.2035106 1137.5261,-67.4985155 1144.81767,-64.7001195 L943.64946,459.468873 C941.526231,458.65401 939.316589,457.84349 937.020351,457.038832 Z M949.628414,461.869799 L1167.33299,-55.6497635 C1175.02014,-52.4160154 1182.61053,-49.0714222 1190.10342,-45.6140786 L954.876107,464.179891 C953.21641,463.414079 951.467423,462.643414 949.628414,461.869799 Z M959.384617,466.358062 L1213.26787,-34.4064274 C1221.16001,-30.4051801 1228.93563,-26.2699007 1236.59302,-21.9984121 L963.080436,468.320514 C961.93707,467.682715 960.705698,467.027838 959.384617,466.358062 Z M965.981552,470.016913 L1260.31631,-8.09273215 C1268.34548,-3.14979929 1276.23016,1.95398574 1283.96713,7.22064371 L968.03385,471.34126 C967.430584,470.930609 966.747563,470.488486 965.981552,470.016913 Z M1307.35305,23.9795665 C1315.35828,30.0174361 1323.18187,36.2424174 1330.81864,42.6554419 L969.762242,472.608998 C969.695117,472.55263 1082.22539,323.009486 1307.35305,23.9795665 Z M1353.97712,63.2228688 C1361.69763,70.4754716 1369.1904,77.9344755 1376.44854,85.5983409 L982.283087,458.896747 L1353.97712,63.2228688 Z M969.568505,472.43161 C969.350673,472.226981 969.093029,471.970497 968.802473,471.6637 L982.283087,458.896747 L969.568505,472.43161 Z M1398.11867,109.926517 C1405.18529,118.368351 1411.9771,127.018917 1418.48694,135.873146 L996.41758,446.188686 L1398.11867,109.926517 Z M967.601407,470.310575 C967.119,469.734288 966.630195,469.11171 966.142152,468.447908 L996.41758,446.188686 L967.601407,470.310575 Z M1002.27596,442.049663 L1437.46608,163.514288 C1443.49474,172.933611 1449.21368,182.54184 1454.61779,192.330858 L1002.27596,442.049663 Z M1002.27596,442.049663 L964.5828,466.174475 C964.063331,465.362844 963.566502,464.528137 963.097438,463.678472 L1002.27596,442.049663 Z M1469.9417,222.362466 C1474.6427,232.366925 1479.02459,242.522529 1483.08581,252.820368 L997.963201,444.140978 L1469.9417,222.362466 Z M961.79833,461.13453 C961.425635,460.34138 961.088798,459.560714 960.789359,458.801441 L997.963201,444.140978 L961.79833,461.13453 Z M1494.20492,283.819542 C1497.48947,293.957717 1500.47318,304.20457 1503.1577,314.552848 L982.20901,449.695591 L1494.20492,283.819542 Z M960.090464,456.861541 C959.930923,456.369098 959.801436,455.924405 959.700343,455.534713 L982.20901,449.695591 L960.090464,456.861541 Z M1510.19624,345.295281 C1512.16757,355.194312 1513.8745,365.166753 1515.32031,375.208068 L959.605124,455.223157 C959.589155,455.112249 1143.11953,418.469624 1510.19624,345.295281 Z M959.74157,456.414545 L1518.80247,404.716468 C1519.67481,414.149883 1520.32468,423.633055 1520.75553,433.163842 L959.882173,458.518565 C959.846608,457.731842 959.798595,457.031216 959.74157,456.414545 Z M1521.39435,461.074427 C1521.39431,461.355587 1521.39431,461.355587 1521.39435,461.636718 C1521.39435,470.672791 1521.20415,479.669076 1520.82065,488.624517 L959.888577,464.603869 C959.927293,463.699751 959.948197,462.711052 959.948197,461.636718 L1521.39435,461.074427 Z M959.752683,466.714693 L1518.9336,517.09804 C1518.05011,526.903448 1516.92652,536.651324 1515.55912,546.33854 L959.624044,467.865799 C959.666328,467.566241 959.710436,467.183581 959.752683,466.714693 Z M971.939278,470.498733 L1510.469,576.506432 C1508.44518,586.787629 1506.13654,596.983827 1503.54009,607.089044 L971.939278,470.498733 Z M971.939278,470.498733 L959.594212,468.06865 C959.626424,467.905011 959.679709,467.669672 959.757063,467.368617 L971.939278,470.498733 Z M994.899787,477.047284 L1494.60778,637.986073 C1491.23742,648.450882 1487.54746,658.791675 1483.53739,668.999777 L994.899787,477.047284 Z M994.899787,477.047284 L960.194284,465.869833 C960.412546,465.192139 960.669642,464.471648 960.966078,463.717037 L994.899787,477.047284 Z M1470.15745,700.04566 C1465.35655,710.252616 1460.22501,720.291385 1454.76624,730.152505 L1005.93589,481.696005 L1470.15745,700.04566 Z M962.105136,461.079925 C962.550302,460.133481 963.036174,459.182974 963.559353,458.237865 L1005.93589,481.696005 L962.105136,461.079925 Z M1437.50374,759.050223 C1431.40826,768.531152 1425.00113,777.808465 1418.28914,786.874757 L1005.79845,481.498082 L1437.50374,759.050223 Z M965.240917,455.422814 C965.822981,454.51747 966.426628,453.643408 967.045076,452.808034 L1005.79845,481.498082 L965.240917,455.422814 Z M1397.42742,813.218121 C1390.35687,821.575613 1383.01868,829.715567 1375.42068,837.634416 L996.163672,473.74383 L1397.42742,813.218121 Z M968.797329,450.591551 C969.311842,449.98339 969.813974,449.426395 970.295886,448.924133 L996.163672,473.74383 L968.797329,450.591551 Z M1352.26637,860.344676 C1344.61955,867.405715 1336.75724,874.258261 1328.68605,880.90219 L979.125091,456.247852 L1352.26637,860.344676 Z M971.377618,447.857654 C971.589542,447.661964 971.754061,447.518574 971.864568,447.427609 L979.125091,456.247852 L971.377618,447.857654 Z M971.63918,447.597495 L1304.47964,899.746821 C1296.61724,905.534564 1288.58648,911.1381 1280.39178,916.559222 L970.621359,448.302809 C971.036607,448.028105 971.374405,447.792404 971.63918,447.597495 Z M968.733459,449.483202 L1255.99875,931.873535 C1248.15865,936.542345 1240.1862,941.055829 1232.08389,945.416351 L966.009472,451.021583 C967.005984,450.485278 967.913154,449.971697 968.733459,449.483202 Z M962.569867,452.783239 L1209.18767,957.165475 C1201.49589,960.926371 1193.69679,964.558411 1185.79153,968.06381 L958.203102,454.814078 C959.750809,454.127784 961.206007,453.450099 962.569867,452.783239 Z M953.034987,456.995409 L1162.65471,977.842172 C1155.17867,980.850979 1147.61329,983.753896 1139.95896,986.552734 L947.149173,459.251901 C949.201272,458.501542 951.163081,457.748776 953.034987,456.995409 Z M940.536369,461.555303 L1117.48867,994.387043 C1110.24023,996.794236 1102.9151,999.113827 1095.51328,1001.3472 L933.328651,463.836338 C935.816647,463.085628 938.219225,462.324822 940.536369,461.555303 Z M925.488217,466.089611 L1073.75182,1007.60571 C1066.71793,1009.53154 1059.61649,1011.38395 1052.4473,1013.16396 L917.155674,468.262177 C920.012836,467.552783 922.790417,466.828251 925.488217,466.089611 Z M908.316665,470.35037 L1031.42024,1018.13435 C1024.58678,1019.67004 1017.69275,1021.14338 1010.73787,1022.55513 L899.04922,472.330241 C902.211941,471.688249 905.301179,471.028041 908.316665,470.35037 Z M889.3246,474.203754 L990.236329,1026.50675 C983.581341,1027.72269 976.871265,1028.88494 970.105822,1029.99403 L879.27711,475.943561 C882.694046,475.383403 886.043302,474.803283 889.3246,474.203754 Z M868.829503,477.562707 L950.109866,1033.09424 C943.612957,1034.04481 937.065432,1034.94851 930.467033,1035.80575 L858.134078,479.038538 C861.761645,478.567259 865.326874,478.075181 868.829503,477.562707 Z M847.138264,480.381129 L911.011145,1038.1822 C904.65162,1038.91042 898.245196,1039.59719 891.791641,1040.24282 L835.902169,481.585372 C839.705168,481.204911 843.450611,480.803396 847.138264,480.381129 Z M824.354862,482.660345 L872.640758,1042.02628 C866.40401,1042.56466 860.123576,1043.06601 853.799253,1043.53056 L812.668935,483.592995 C816.617554,483.302948 820.512931,482.99199 824.354862,482.660345 Z M800.723093,484.396529 L835.029691,1044.79357 C828.899611,1045.16884 822.728615,1045.5107 816.51653,1045.81933 L788.657692,485.064774 C792.728981,484.862509 796.750839,484.639704 800.723093,484.396529 Z M776.374239,485.606747 L798.075489,1046.63334 C792.039528,1046.86682 785.96509,1047.06989 779.852027,1047.24267 L763.988935,486.020666 C768.163462,485.902671 772.291946,485.764656 776.374239,485.606747 Z M751.401395,486.313101 L761.672533,1047.66529 C755.720552,1047.7742 749.732273,1047.85522 743.707567,1047.90847 L738.746048,486.484237 C743.007556,486.446576 747.226047,486.389498 751.401395,486.313101 Z M725.545583,486.539498 L726.167775,1047.9853 C721.911179,1047.99002 717.696958,1048.01438 713.525237,1048.05829 L707.616656,486.643225 C713.557236,486.580704 719.533503,486.54616 725.545583,486.539498 Z M689.542158,486.922121 L700.994719,1048.25145 C696.809514,1048.33684 692.669927,1048.44262 688.576106,1048.56867 L671.297344,487.388465 C677.340856,487.202385 683.422411,487.046979 689.542158,486.922121 Z M652.959597,488.052209 L676.339242,1049.01136 C672.259354,1049.18141 668.22831,1049.37234 664.246281,1049.58401 L634.444454,488.929362 C640.575769,488.603449 646.747426,488.31112 652.959597,488.052209 Z M615.762192,490.034663 L652.325314,1050.289 C648.362672,1050.54761 644.452678,1050.82755 640.595529,1051.1286 L596.907265,491.384802 C603.149078,490.897626 609.433987,490.447652 615.762192,490.034663 Z M577.913176,492.994518 L629.101267,1052.10234 C625.290992,1052.45119 621.537276,1052.82144 617.840345,1053.2128 L558.734557,494.886475 C565.08139,494.214583 571.474187,493.584028 577.913176,492.994518 Z M539.30756,497.089814 L606.805152,1054.46389 C603.159518,1054.90537 599.575308,1055.36815 596.052777,1055.85184 L519.675857,499.624954 C526.169952,498.733233 532.713768,497.888317 539.30756,497.089814 Z M499.777109,502.528219 L585.583868,1057.37863 C582.143797,1057.91063 578.770344,1058.46319 575.463779,1059.03578 L479.665439,505.822932 C486.315217,504.671408 493.019017,503.573347 499.777109,502.528219 Z M459.287779,509.552176 L565.704443,1060.82096 C562.515696,1061.43652 559.399026,1062.071 556.354699,1062.72368 L438.659276,513.752303 C445.476232,512.290798 452.352311,510.890996 459.287779,509.552176 Z M417.741901,518.475246 L547.441222,1064.73514 C544.545377,1065.4227 541.727719,1066.1264 538.988453,1066.84524 L396.477866,523.786759 C403.4999,521.944022 410.587844,520.173845 417.741901,518.475246 Z M374.865665,529.748667 L531.048402,1069.03406 C528.510571,1069.76904 526.05664,1070.51548 523.686645,1071.27206 L352.944403,536.417994 C360.176941,534.10914 367.484017,531.88647 374.865665,529.748667 Z M330.604534,543.908493 L516.920431,1073.53871 C514.803287,1074.28349 512.775066,1075.03258 510.835433,1075.78426 L307.956213,552.275137 C315.419194,549.382955 322.968746,546.594648 330.604534,543.908493 Z M284.898322,561.661189 L505.453336,1077.9724 C503.826695,1078.66726 502.291441,1079.35612 500.846523,1080.03687 L261.558369,572.136328 C269.235331,568.519466 277.015665,565.02846 284.898322,561.661189 Z M237.802913,583.904672 L497.024953,1081.92647 C495.946649,1082.48774 494.957204,1083.02941 494.054345,1083.54922 L213.923041,596.981406 C221.75654,592.471432 229.717256,588.113284 237.802913,583.904672 Z M189.646495,611.708504 L491.907738,1084.84688 C491.399324,1085.17168 490.969358,1085.46126 490.613742,1085.7138 L165.53292,627.953779 C173.410999,622.359118 181.450224,616.944636 189.646495,611.708504 Z M490.312547,1085.91178 C490.192294,1086.01823 490.123154,1086.07607 490.111285,1086.08545 L487.139216,1082.32702 L490.312547,1085.91178 Z M118.16832,665.518567 C125.863451,658.706615 133.763255,652.098752 141.861575,645.694807 L487.139216,1082.32702 L118.16832,665.518567 Z M492.391323,1083.79869 C491.947145,1084.29861 491.521333,1084.74914 491.121398,1085.14732 L469.747497,1063.67967 L492.391323,1083.79869 Z M72.6800479,710.885529 C79.8642297,702.79978 87.3029748,694.92932 94.9887749,687.277086 L469.747497,1063.67967 L72.6800479,710.885529 Z M495.643941,1079.60304 C495.096966,1080.40589 494.534882,1081.17598 493.964515,1081.90669 L459.232855,1054.79634 L495.643941,1079.60304 Z M31.6488649,763.48542 C37.931146,754.264335 44.5119267,745.248254 51.384381,736.443801 L459.232855,1054.79634 L31.6488649,763.48542 Z M498.710175,1074.40432 C498.268067,1075.2809 497.789686,1076.15727 497.278876,1077.02448 L457.805998,1053.77413 L498.710175,1074.40432 Z M-2.58639271,821.573284 C2.46123639,811.56518 7.82979562,801.730314 13.5154419,792.07761 L457.805998,1053.77413 L-2.58639271,821.573284 Z M500.667229,1069.86644 C500.435847,1070.52059 500.166863,1071.21196 499.860366,1071.932 L467.188252,1058.02443 L500.667229,1069.86644 Z M-28.6424245,882.641784 C-24.9862841,872.305376 -21.0157955,862.099953 -16.7310472,852.034081 L467.188252,1058.02443 L-28.6424245,882.641784 Z M501.340853,1067.63783 C501.300019,1067.81862 501.236599,1068.06644 501.148037,1068.37509 L488.359372,1064.70568 L501.340853,1067.63783 Z M-46.309053,943.939159 C-43.9982583,933.7086 -41.4036418,923.569791 -38.522647,913.528932 L488.359372,1064.70568 L-46.309053,943.939159 Z M-52.2729981,974.19048 L501.321855,1067.75607 C501.277346,1068.01942 501.228343,1068.36283 501.178337,1068.78976 L-56.4557516,1003.4751 C-55.3048758,993.649321 -53.9117885,983.88663 -52.2729981,974.19048 Z M-59.1243157,1032.24507 L500.998074,1070.77675 C500.937733,1071.6539 500.89307,1072.61786 500.867338,1073.67 L-60.4109799,1059.94296 C-60.1840578,1050.66445 -59.7562547,1041.43136 -59.1243157,1032.24507 Z M-60.5025451,1087.24259 L500.855466,1077.29451 C500.874403,1078.36308 500.913145,1079.34301 500.968421,1080.23562 L-59.4042955,1114.9372 C-59.9731612,1105.75097 -60.3381536,1096.519 -60.5025451,1087.24259 Z M-56.9702486,1143.3913 L501.136709,1082.24879 C501.185257,1082.69194 501.233701,1083.05079 501.278497,1083.32869 L-53.0127398,1172.67636 C-54.5759681,1162.97847 -55.8939563,1153.21566 -56.9702486,1143.3913 Z M501.124177,1082.77613 C501.207748,1083.07651 501.266723,1083.31486 501.303764,1083.48509 L488.786858,1086.20868 L501.124177,1082.77613 Z M-39.7768285,1233.26827 C-42.5710489,1223.22524 -45.0796105,1213.08662 -47.3051762,1202.85851 L488.786858,1086.20868 L-39.7768285,1233.26827 Z M499.878475,1079.2449 C500.1788,1079.96772 500.441298,1080.66013 500.666061,1081.31355 L467.161807,1092.83837 L499.878475,1079.2449 Z M-18.595746,1294.66603 C-22.7956146,1284.55782 -26.6797888,1274.31225 -30.2483614,1263.93791 L467.161807,1092.83837 L-18.595746,1294.66603 Z M497.3154,1074.08183 C497.82563,1074.96486 498.302213,1075.85571 498.741458,1076.74532 L457.256733,1097.22835 L497.3154,1074.08183 Z M11.1867475,1354.97453 C5.57585964,1345.26402 0.284459211,1335.37311 -4.68376252,1325.31086 L457.256733,1097.22835 L11.1867475,1354.97453 Z M493.994959,1069.10042 C494.57533,1069.85772 495.145417,1070.65378 495.698451,1071.48173 L458.233715,1096.50658 L493.994959,1069.10042 Z M48.3627928,1410.61726 C41.5527541,1401.73111 35.0380247,1392.63412 28.8253742,1383.33315 L458.233715,1096.50658 L48.3627928,1410.61726 Z M491.044606,1065.68184 C491.466506,1066.10867 491.912436,1066.58829 492.374807,1067.11757 L468.426339,1088.03879 L491.044606,1065.68184 Z M91.7423122,1460.3709 C84.0910215,1452.63018 76.6906814,1444.67065 69.5488816,1436.49545 L468.426339,1088.03879 L91.7423122,1460.3709 Z M489.875788,1064.58658 C489.916001,1064.61884 490.012223,1064.70049 490.158185,1064.83161 L485.685897,1069.81016 L489.875788,1064.58658 Z M138.579522,1502.55087 C130.502944,1496.07255 122.627707,1489.38946 114.960078,1482.50153 L485.685897,1069.81016 L138.579522,1502.55087 Z M162.837692,1520.96315 L490.312885,1064.91295 C490.6456,1065.15187 491.052128,1065.4287 491.536644,1065.74165 L186.914232,1537.36329 C178.728643,1532.07618 170.701738,1526.61007 162.837692,1520.96315 Z M211.332016,1552.33438 L493.629747,1067.02028 C494.512296,1067.53365 495.481392,1068.06968 496.53936,1068.62608 L235.204481,1565.54243 C227.120042,1561.29072 219.161779,1556.8888 211.332016,1552.33438 Z M258.016746,1576.98382 L500.137422,1070.42745 C501.554276,1071.10467 503.061687,1071.79091 504.660753,1072.48401 L281.377403,1587.6212 C273.486477,1584.20093 265.699225,1580.65585 258.016746,1576.98382 Z M304.439501,1597.14826 L509.960899,1074.67076 C511.874998,1075.42369 513.877949,1076.17472 515.97011,1076.92209 L327.095603,1605.64527 C319.456343,1602.91632 311.904189,1600.08456 304.439501,1597.14826 Z M349.528588,1613.28401 L522.692722,1079.20914 C525.044626,1079.9717 527.48101,1080.72461 530.001849,1081.46651 L371.485404,1620.07056 C364.091074,1617.89434 356.772143,1615.6326 349.528588,1613.28401 Z M393.169706,1626.15089 L537.909856,1083.68239 C540.632896,1084.40895 543.434715,1085.12072 546.315114,1085.81672 L414.446925,1631.5571 C407.287942,1629.82726 400.195602,1628.02552 393.169706,1626.15089 Z M435.516842,1636.39955 L555.246943,1087.86834 C558.281506,1088.53071 561.388883,1089.17511 564.568811,1089.80082 L456.172834,1640.68383 C449.227692,1639.31725 442.342449,1637.8894 435.516842,1636.39955 Z M476.641107,1644.50394 L574.335802,1091.62282 C577.631906,1092.20525 580.995171,1092.76787 584.425325,1093.31014 L496.75469,1647.8691 C489.995657,1646.80056 483.29122,1645.67902 476.641107,1644.50394 Z M516.695497,1650.84598 L594.887867,1094.8714 C598.401248,1095.36552 601.976532,1095.83893 605.613461,1096.29122 L536.324966,1653.4455 C529.73168,1652.62555 523.188609,1651.75917 516.695497,1650.84598 Z M555.843513,1655.72161 L616.678023,1097.58099 C620.373481,1097.98378 624.126098,1098.36554 627.935645,1098.72599 L575.049669,1657.67577 C568.601154,1657.06563 562.199178,1656.41434 555.843513,1655.72161 Z M594.187562,1659.35491 L639.500534,1099.7403 C643.348497,1100.05188 647.249367,1100.34252 651.202944,1100.61202 L613.02071,1660.75834 C606.69968,1660.32746 600.42203,1659.85973 594.187562,1659.35491 Z M631.762466,1661.92093 L663.149533,1101.35279 C667.126545,1101.57547 671.152704,1101.77755 675.227838,1101.95887 L650.271678,1662.8501 C644.061346,1662.57378 637.891666,1662.26411 631.762466,1661.92093 Z M668.670933,1663.56735 L687.496305,1102.43689 C691.581415,1102.57394 695.712304,1102.6909 699.888825,1102.78762 L686.889637,1664.08327 C680.778557,1663.94174 674.705705,1663.76981 668.670933,1663.56735 Z M705.090629,1664.41352 L712.500049,1103.01626 C716.67773,1103.0714 720.898197,1103.10702 725.161324,1103.12302 L723.053715,1664.56522 C717.029985,1664.54261 711.042332,1664.49207 705.090629,1664.41352 Z M739.473101,1664.57896 L739.473101,1103.13281 L754.785269,1103.13281 L754.785269,1664.57896 L739.473101,1664.57896 Z M770.097437,1664.57896 L770.097437,1103.13281 L785.409605,1103.13281 L785.409605,1664.57896 L770.097437,1664.57896 Z M800.721772,1664.57896 L800.721772,1103.13281 L816.03394,1103.13281 L816.03394,1664.57896 L800.721772,1664.57896 Z M831.346108,1664.57896 L831.346108,1103.13281 L846.658276,1103.13281 L846.658276,1664.57896 L831.346108,1664.57896 Z M861.970443,1664.57896 L861.970443,1103.13281 L877.282611,1103.13281 L877.282611,1664.57896 L861.970443,1664.57896 Z M892.594779,1664.57896 L892.594779,1103.13281 L907.906947,1103.13281 L907.906947,1664.57896 L892.594779,1664.57896 Z M923.219115,1664.57896 L923.219115,1103.13281 L938.531282,1103.13281 L938.531282,1664.57896 L923.219115,1664.57896 Z M953.84345,1664.57896 L953.84345,1103.13281 L969.155618,1103.13281 L969.155618,1664.57896 L953.84345,1664.57896 Z M984.467786,1664.57896 L984.467786,1103.13281 L999.779953,1103.13281 L999.779953,1664.57896 L984.467786,1664.57896 Z M1015.09212,1664.57896 L1015.09212,1103.13281 L1030.40429,1103.13281 L1030.40429,1664.57896 L1015.09212,1664.57896 Z M1045.71646,1664.57896 L1045.71646,1103.13281 L1061.02862,1103.13281 L1061.02862,1664.57896 L1045.71646,1664.57896 Z M1076.34079,1664.57896 L1076.34079,1103.13281 L1091.65296,1103.13281 L1091.65296,1664.57896 L1076.34079,1664.57896 Z M1106.96513,1664.57896 L1106.96513,1103.13281 L1122.2773,1103.13281 L1122.2773,1664.57896 L1106.96513,1664.57896 Z M1137.58946,1664.57896 L1137.58946,1103.13281 L1152.90163,1103.13281 L1152.90163,1664.57896 L1137.58946,1664.57896 Z M1168.2138,1664.57896 L1168.2138,1103.13281 L1183.52597,1103.13281 L1183.52597,1664.57896 L1168.2138,1664.57896 Z M1198.83813,1664.57896 L1198.83813,1103.13281 L1214.1503,1103.13281 L1214.1503,1664.57896 L1198.83813,1664.57896 Z M1229.46247,1664.57896 L1229.46247,1103.13281 L1240.67127,1103.13281 L1240.67127,1664.57896 L1229.46247,1664.57896 Z" id="Path-3-Copy" fill="url(#linearGradient-1)" fill-rule="nonzero" transform="translate(730.394352, 462.394352) rotate(45.000000) translate(-730.394352, -462.394352) "></path>
    </g>
</svg>