<?xml version="1.0" encoding="UTF-8"?>
<svg width="94px" height="88px" viewBox="0 0 94 88" version="1.1" xmlns="http://www.w3.org/2000/svg" xmlns:xlink="http://www.w3.org/1999/xlink">
    <!-- Generator: Sketch 48.2 (47327) - http://www.bohemiancoding.com/sketch -->
    <title>Shape</title>
    <desc>Created with Sketch.</desc>
    <defs></defs>
    <g id="Wallet" stroke="none" stroke-width="1" fill="none" fill-rule="evenodd" transform="translate(-675.000000, -592.000000)">
        <g id="Group-Copy-4" transform="translate(601.000000, 554.000000)" fill="#54DFC5" fill-rule="nonzero" stroke="#5DD6BF">
            <path d="M120.622,82.748 C120.622,84.779 124.054,86.806 128.286,86.806 C132.518,86.806 135.951,84.78 135.951,82.748 C135.951,80.722 132.518,78.691 128.286,78.691 C124.054,78.691 120.622,80.722 120.622,82.748 Z M88.009,86.005 C88.009,107.442 105.621,124.819 127.348,124.819 C149.059,124.819 166.669,107.441 166.669,86.005 C166.669,64.569 149.059,47.193 127.348,47.193 C121.225,47.193 115.432,48.577 110.263,51.035 C110.575,52.4 110.75,53.823 110.75,55.286 C110.75,65.781 102.129,74.283 91.5,74.283 C90.954,74.283 90.408,74.264 89.862,74.205 C88.672,77.931 88.009,81.89 88.009,86.005 Z M153.408,81.579 L122.883,100.634 L102.969,91.624 L105.135,90.297 L122.884,98.176 L151.243,80.447 L153.408,81.579 Z M153.408,85.674 L122.883,104.73 L102.969,95.72 L105.135,94.394 L122.884,102.272 L151.243,84.543 L153.408,85.674 Z M153.408,77.483 L122.883,96.538 L102.969,87.527 L133.494,68.47 L153.408,77.483 Z M75,55.286 C75,64.278 82.392,71.574 91.501,71.574 C100.629,71.574 108.001,64.279 108.001,55.286 C108.001,46.295 100.628,39 91.501,39 C82.392,39 75,46.295 75,55.286 Z M93.665,53.61 L98.424,53.61 C99.362,53.61 100.121,54.37 100.121,55.286 C100.121,56.223 99.361,56.964 98.424,56.964 L93.665,56.964 L90.272,56.964 L85.532,56.964 C84.596,56.964 83.835,56.222 83.835,55.286 C83.835,54.369 84.596,53.61 85.532,53.61 L90.272,53.61 L93.665,53.61 Z" id="Shape"></path>
        </g>
    </g>
</svg>